<?xml version="1.0" encoding="utf-8"?>
<!-- Generator: Adobe Illustrator 20.1.0, SVG Export Plug-In . SVG Version: 6.00 Build 0)  -->
<svg version="1.1" id="Calque_10" xmlns="http://www.w3.org/2000/svg" xmlns:xlink="http://www.w3.org/1999/xlink" x="0px" y="0px"
	 viewBox="0 0 90 178" style="enable-background:new 0 0 90 178;" xml:space="preserve">
<style type="text/css">
	.st0{fill:#FFFFFF;}
	.st1{fill:none;}
	.st2{font-family:'OratorStd';}
	.st3{font-size:12px;}
</style>
<g>
	<path class="st0" d="M48.4,156l-1.5-22.2c-0.1-2.3-2-4-4.3-4h-4.8c-2.2,0-4,1.6-4.3,3.8l-1.7,14.1c-0.3,2.2-2.1,3.8-4.3,3.8H26
		c-2.4,0-4.3-1.9-4.3-4.3L21.4,134c0-2.4-2-4.3-4.3-4.3c-2.4,0-4.3,1.9-4.3,4.3v21.6c0,2.4-1.9,4.3-4.3,4.3h44.3
		C50.4,160,48.6,158.2,48.4,156z"/>
	<path class="st0" d="M0,10.9C0,5.2,5.1,0.8,10.8,1.6l36.4,5.4c1.1,0.2,2.2,0.6,3.2,1.1l4.2,2.4c4.8,2.7,6.2,9,3.1,13.6l-2,2.9
		c-1.5,2.1-2,4.7-1.5,7.2l4.9,25.2c0.8,4.3,4.5,7.4,8.8,7.6l13,0.5c5,0.2,9,4.3,9,9.4c0,0,0,0,0,0V0H0V10.9z"/>
	<path class="st0" d="M0,155.7v4.3h4.3C1.9,160,0,158.1,0,155.7z"/>
	<path class="st0" d="M85.7,149.9l-4.1,0c-2.2,0-4.1-1.6-4.3-3.8l-1.4-12.5c-0.3-2.2-2.1-3.8-4.3-3.8h-3.6c-2.4,0-4.3,2-4.3,4.4
		l0.1,21.5c0,2.4-1.9,4.4-4.3,4.4H90v-14.4C90,147.9,88.1,149.9,85.7,149.9z"/>
</g>
<rect y="160" class="st0" width="90" height="18"/>
<rect x="-10.2" y="166.1" class="st1" width="110.5" height="22.2"/>
<text transform="matrix(1 0 0 1 5.4043 172.3161)" class="st2 st3">canal/h0use</text>
</svg>
